<svg width="16" height="21" viewBox="0 0 16 21" fill="none" xmlns="http://www.w3.org/2000/svg">
<path d="M9 0.0988764V21H9.17745H12.9456L15.9476 17.5202C15.9816 17.482 16 17.4303 16 17.2697V3.63708C16 3.57191 15.9816 3.51798 15.9476 3.47978L12.9465 0H9.00097V0.0988764H9ZM14.6076 17.0944L12.6294 19.3865H10.3934V14.7202H13.4963V13.1517H10.3934V8.31573H13.5031V6.74831H10.3934V1.61461H12.6294L14.6076 3.90562V17.0944Z" fill="#FF6101"/>
<path d="M7 0H3.05444L0.0523618 3.47959C0.0184236 3.51779 0 3.57172 0 3.63688V17.2699C0 17.4305 0.0184236 17.4822 0.0523618 17.5204L3.05444 21H7V0ZM1.39244 3.90541L3.37055 1.61452H5.60659V6.74908H2.49785V8.31641H5.60756V13.1521H2.50464V14.7206H5.60756V19.3866H3.37152L1.39341 17.0946V3.90541H1.39244Z" fill="#FF6101"/>
</svg>
